<?xml version="1.0" encoding="utf-8"?>
<!-- Generator: Adobe Illustrator 15.0.0, SVG Export Plug-In . SVG Version: 6.00 Build 0)  -->
<!DOCTYPE svg PUBLIC "-//W3C//DTD SVG 1.1//EN" "http://www.w3.org/Graphics/SVG/1.1/DTD/svg11.dtd">
<svg version="1.1" id="Layer_1" xmlns="http://www.w3.org/2000/svg" xmlns:xlink="http://www.w3.org/1999/xlink" x="0px" y="0px"
	 width="64px" height="64px" viewBox="0 0 64 64" style="enable-background:new 0 0 64 64;" xml:space="preserve">
<style type="text/css">
<![CDATA[
	.st0{fill:#EFE6FF;}
	.st1{fill:url(#SVGID_1_);}
]]>
</style>
<g id="digital_key">
	<linearGradient id="SVGID_1_" gradientUnits="userSpaceOnUse" x1="27.5864" y1="27.5869" x2="59.4145" y2="59.415">
		<stop  offset="0" style="stop-color:#E68CBC"/>
		<stop  offset="1" style="stop-color:#8366B3"/>
	</linearGradient>
	<path class="st1" d="M48,60c-1.104,0-2-0.896-2-2v-9.172L43.172,46H34c-0.53,0-1.039-0.211-1.414-0.586l-10-10
		c-0.781-0.781-0.781-2.047,0-2.828c0.78-0.781,2.048-0.781,2.828,0L34.828,42h4.344L28.586,31.414
		c-0.781-0.781-0.781-2.047,0-2.828c0.78-0.781,2.048-0.781,2.828,0L38.828,36l9.173,0.001c0.53,0,1.039,0.211,1.414,0.586
		l9.999,9.999c0.781,0.781,0.781,2.047,0,2.828s-2.047,0.781-2.828,0l-9.413-9.413L42.829,40l16.585,16.586
		c0.781,0.781,0.781,2.047,0,2.828s-2.047,0.781-2.828,0L50,52.828V58C50,59.104,49.104,60,48,60z M40.001,32.001
		c-0.512,0-1.023-0.195-1.414-0.586l-6-6.001c-0.781-0.781-0.781-2.047,0-2.828c0.781-0.781,2.046-0.781,2.828,0l6.001,6.001
		c0.781,0.781,0.781,2.047,0,2.828C41.024,31.806,40.513,32.001,40.001,32.001z"/>
	<path class="st0" d="M32.146,7.853c5.753,5.75,4.976,15.851-1.735,22.559c-6.708,6.711-16.808,7.488-22.559,1.735
		c-5.75-5.751-4.975-15.85,1.735-22.559C16.296,2.878,26.396,2.102,32.146,7.853z M27.542,27.541
		c2.595-2.596,4.166-5.859,4.422-9.19c0.235-3.052-0.689-5.786-2.602-7.699c-2.18-2.18-4.891-2.637-6.781-2.637
		c-3.591,0-7.275,1.625-10.108,4.459c-5.159,5.158-5.976,12.733-1.821,16.889c2.18,2.179,4.891,2.637,6.78,2.637
		C21.023,32,24.708,30.375,27.542,27.541z M18.934,18.934c0.626-0.626,1.004-1.412,1.066-2.214c0.056-0.736-0.166-1.395-0.627-1.855
		c-0.525-0.526-1.179-0.636-1.634-0.636c-0.865,0-1.753,0.391-2.437,1.074c-1.242,1.243-1.44,3.069-0.438,4.069
		c0.525,0.525,1.177,0.636,1.633,0.636C17.363,20.007,18.25,19.616,18.934,18.934z M50,58c0-1.104-0.896-2-2-2s-2,0.896-2,2
		s0.896,2,2,2S50,59.104,50,58z M60,58c0-1.104-0.896-2-2-2s-2,0.896-2,2s0.896,2,2,2S60,59.104,60,58z M60,48c0-1.104-0.896-2-2-2
		s-2,0.896-2,2s0.896,2,2,2S60,49.104,60,48z M42,30c0-1.104-0.896-2-2-2s-2,0.896-2,2s0.896,2,2,2S42,31.104,42,30z"/>
</g>
</svg>
